<?xml version="1.0" standalone="no"?>
<!DOCTYPE svg PUBLIC "-//W3C//DTD SVG 20010904//EN"
 "http://www.w3.org/TR/2001/REC-SVG-20010904/DTD/svg10.dtd">
<svg version="1.0" xmlns="http://www.w3.org/2000/svg"
 width="75pt" height="75pt" viewBox="0 0 512.000000 512.000000"
 preserveAspectRatio="xMidYMid meet">

<g transform="translate(0.000000,512.000000) scale(0.100000,-0.100000)"
fill="#000000" stroke="none">
<path d="M2505 5106 c-135 -61 -2135 -1113 -2151 -1131 -13 -14 -24 -43 -27
-72 -4 -26 -3 -645 1 -1375 l7 -1328 25 -24 c23 -23 1923 -1025 2148 -1133 67
-32 101 -44 120 -40 38 8 2112 1134 2142 1163 l25 24 0 1415 0 1415 -25 24
c-28 27 -2162 1063 -2206 1071 -16 3 -42 -1 -59 -9z m1010 -654 c523 -257 953
-471 955 -477 5 -11 -1836 -1045 -1860 -1044 -8 0 -458 222 -999 493 l-984
493 709 370 c390 204 822 430 959 502 138 72 255 131 260 131 6 0 438 -211
960 -468z m1093 -1903 l-3 -1271 -870 -472 c-478 -259 -905 -491 -947 -514
l-78 -43 0 1259 0 1258 943 527 c518 289 945 527 950 527 4 0 6 -572 5 -1271z"/>
</g>
</svg>
